Coordinates
version=1
nRows=14
nColumns=40
inDegrees=yes

Units are S.I. units (second, meters, Newtons, ...)
Angles are in degrees.

endheader
time	pelvis_tilt	pelvis_list	pelvis_rotation	pelvis_tx	pelvis_ty	pelvis_tz	hip_flexion_r	hip_adduction_r	hip_rotation_r	knee_angle_r	knee_angle_r_beta	ankle_angle_r	subtalar_angle_r	mtp_angle_r	hip_flexion_l	hip_adduction_l	hip_rotation_l	knee_angle_l	knee_angle_l_beta	ankle_angle_l	subtalar_angle_l	mtp_angle_l	lumbar_extension	lumbar_bending	lumbar_rotation	arm_flex_r	arm_add_r	arm_rot_r	elbow_flex_r	pro_sup_r	wrist_flex_r	wrist_dev_r	arm_flex_l	arm_add_l	arm_rot_l	elbow_flex_l	pro_sup_l	wrist_flex_l	wrist_dev_l
      0.00000000	     -1.56410837	     -2.30183017	     -1.24460385	     -0.97777009	      0.89940289	      1.08352473	      9.95322503	      2.45721160	    -14.84685996	    -22.63802849	     -0.39510813	      9.69944972	     -1.83086850	      0.92904396	     24.40898428	      6.13639394	      5.66469106	    -67.48119883	     -1.17776910	      3.94934815	     18.77106120	     21.41415475	     -3.84199961	      3.24294103	     -1.50538070	      2.23913096	    -10.00742082	    -17.83590857	     28.50594695	     89.95437384	      0.00000000	      0.00000000	     -3.52186550	      8.97950539	     13.29459569	     27.54424591	     89.95437384	      0.00000000	      0.00000000
      0.01000000	     -1.41420570	     -2.18436486	     -1.41444034	     -0.96930758	      0.89999410	      1.08507807	      8.90193438	      2.48890479	    -14.68465858	    -22.13022652	     -0.38624532	     10.00699671	     -1.54887108	      0.91099784	     25.07889019	      5.99453199	      5.99344099	    -66.35506809	     -1.15811441	      4.53104284	     18.69355109	     21.31668566	     -4.06913650	      3.10539448	     -1.09865667	      2.62672800	    -10.15662914	    -17.92834179	     29.20255824	     89.95437384	      0.00000000	      0.00000000	     -3.96514600	      8.88348205	     13.33989430	     26.55316308	     89.95437384	      0.00000000	      0.00000000
      0.02000000	     -1.57916013	     -2.14613686	     -1.50071587	     -0.96103459	      0.89989469	      1.08656514	      8.36099669	      2.52643656	    -14.87871306	    -21.91873155	     -0.38255403	     10.22100840	     -1.50299280	      0.87110212	     26.17146477	      6.01185206	      6.32741447	    -65.13052893	     -1.13674217	      4.83516295	     18.67864904	     21.08247257	     -3.94462777	      3.02845844	     -0.86565257	      3.04836855	    -10.28322526	    -17.86440295	     29.76419151	     89.95437384	      0.00000000	      0.00000000	     -4.69229721	      8.84516493	     13.29027647	     26.02849883	     89.95437384	      0.00000000	      0.00000000
      0.03000000	     -1.36277128	     -1.98925332	     -1.73524419	     -0.95242214	      0.90036605	      1.08804486	      7.20884266	      2.49614636	    -14.62531849	    -21.35213426	     -0.37266505	     10.66122391	     -0.88854746	      0.72151866	     26.58670100	      5.87296939	      6.80887898	    -63.57030250	     -1.10951109	      5.62461091	     18.67809781	     20.98593455	     -4.23185314	      2.83199362	     -0.33305251	      3.25558162	    -10.50242276	    -17.78790241	     30.67630378	     89.95437384	      0.00000000	      0.00000000	     -5.02077993	      8.78834229	     13.22991894	     24.99873533	     89.95437384	      0.00000000	      0.00000000
      0.04000000	     -1.17627680	     -1.89859195	     -1.91557218	     -0.94364217	      0.90064009	      1.08940916	      6.16707570	      2.46818109	    -14.70353978	    -20.95128230	     -0.36566886	     10.99313574	     -0.34682030	      0.54177691	     26.97714526	      5.85875702	      7.37138039	    -61.81991873	     -1.07896113	      6.33356624	     18.74004506	     21.01902117	     -4.46297323	      2.70258297	      0.08898255	      3.51277250	    -10.69858919	    -17.77364825	     31.43849935	     89.95437384	      0.00000000	      0.00000000	     -5.51894155	      8.71376830	     13.23419071	     24.23020525	     89.95437384	      0.00000000	      0.00000000
      0.05000000	     -1.14745329	     -1.87086009	     -2.07187851	     -0.93500606	      0.90050808	      1.09072250	      5.31709741	      2.51188162	    -14.72829727	    -20.58654601	     -0.35930301	     11.31066017	      0.07156953	      0.38160390	     27.54101313	      5.88815915	      7.84669393	    -59.96442169	     -1.04657659	      7.06238961	     18.80037767	     21.05541425	     -4.52527453	      2.64614503	      0.44778903	      3.76263511	    -10.87870653	    -17.77550518	     32.18109794	     89.95437384	      0.00000000	      0.00000000	     -6.07505595	      8.64962743	     13.21320325	     23.54212004	     89.95437384	      0.00000000	      0.00000000
      0.06000000	     -0.95263972	     -1.85196311	     -2.28779212	     -0.92618544	      0.90056164	      1.09212298	      4.27823716	      2.55235497	    -14.75357192	    -20.23818756	     -0.35322301	     11.60045850	      0.61135716	      0.16872584	     27.77805334	      6.01722159	      8.51857831	    -57.85928063	     -1.00983495	      7.66336400	     18.87469156	     21.31423279	     -4.77386730	      2.57439889	      0.88286385	      3.96540269	    -11.07988616	    -17.67069929	     32.97596792	     89.95437384	      0.00000000	      0.00000000	     -6.64776839	      8.62196788	     13.09932734	     23.01789058	     89.95437384	      0.00000000	      0.00000000
      0.07000000	     -1.24679745	     -2.04561024	     -2.33008674	     -0.91776057	      0.89962011	      1.09329840	      3.90777206	      2.82722385	    -15.04267378	    -20.14053506	     -0.35151865	     11.79500687	      0.60002517	      0.11356815	     28.73241708	      6.32420192	      8.93348089	    -55.85203757	     -0.97480195	      7.94232239	     18.94164949	     21.20817450	     -4.48175707	      2.77175065	      1.01603065	      4.29829167	    -11.25791442	    -17.62007205	     33.53295874	     89.95437384	      0.00000000	      0.00000000	     -7.40252198	      8.55472210	     13.05488545	     22.67620079	     89.95437384	      0.00000000	      0.00000000
      0.08000000	     -1.51773042	     -2.18323557	     -2.40190745	     -0.90933201	      0.89865994	      1.09429097	      3.48553589	      3.04203034	    -15.12748112	    -19.98502042	     -0.34880441	     11.99710057	      0.65220604	      0.04963462	     29.52290503	      6.51620849	      9.30565528	    -53.64189955	     -0.93622776	      8.18353704	     18.97107453	     21.09668484	     -4.22042427	      2.91663572	      1.23288920	      4.51440403	    -11.46415494	    -17.52277840	     34.20312055	     89.95437384	      0.00000000	      0.00000000	     -8.07935830	      8.48552094	     13.04139307	     22.35566943	     89.95437384	      0.00000000	      0.00000000
      0.09000000	     -1.09558226	     -1.90068149	     -2.78543004	     -0.90056574	      0.89901392	      1.09548612	      2.08333344	      2.81066909	    -14.68653059	    -19.34524934	     -0.33763830	     12.34402236	      1.31184423	     -0.20588423	     29.09905728	      6.31973658	     10.15868476	    -50.74691033	     -0.88570067	      8.33926775	     18.93207573	     21.49006383	     -4.79849391	      2.54486914	      1.93117193	      4.47907842	    -11.75071798	    -17.16309635	     35.37789952	     89.95437384	      0.00000000	      0.00000000	     -8.34177419	      8.41737376	     13.20989994	     21.67165200	     89.95437384	      0.00000000	      0.00000000
      0.10000000	     -1.07209463	     -1.88464011	     -2.87767572	     -0.89195935	      0.89850825	      1.09620810	      1.28000961	      2.79526158	    -14.89534444	    -19.05159247	     -0.33251302	     12.61826728	      1.71553644	     -0.48902632	     29.29706890	      6.31615387	     10.65547520	    -48.07000265	     -0.83897982	      8.32750349	     18.85847817	     21.70925261	     -4.89206932	      2.50556993	      2.17326474	      4.67908542	    -11.96276942	    -16.97050563	     36.09746540	     89.95437384	      0.00000000	      0.00000000	     -8.86545288	      8.34788585	     13.27289405	     21.29710086	     89.95437384	      0.00000000	      0.00000000
      0.11000000	     -1.23713094	     -1.85602111	     -2.91331268	     -0.88363261	      0.89762089	      1.09685510	      0.77983849	      2.77072760	    -15.07869957	    -18.91863053	     -0.33019239	     12.79549038	      2.03643098	     -0.77205014	     29.68685287	      6.27021794	     11.10042418	    -45.26523524	     -0.79002739	      8.16405112	     18.70985300	     21.64314077	     -4.81794679	      2.46042393	      2.33462004	      4.82240385	    -12.15406188	    -16.72957673	     36.91645552	     89.95437384	      0.00000000	      0.00000000	     -9.38278027	      8.26133567	     13.51562382	     21.00592628	     89.95437384	      0.00000000	      0.00000000
      0.12000000	     -1.51221845	     -1.86770816	     -2.91651605	     -0.87536019	      0.89652459	      1.09729252	      0.38213644	      2.79225302	    -15.21010812	    -18.76187468	     -0.32745649	     13.06379226	      2.29488708	     -0.99326359	     30.17798941	      6.18480893	     11.34744612	    -42.42817553	     -0.74051136	      7.94270169	     18.46471593	     21.37799575	     -4.61151048	      2.46452904	      2.49722516	      4.89994859	    -12.39164314	    -16.41631508	     37.70015210	     89.95437384	      0.00000000	      0.00000000	     -9.78986175	      8.15277862	     13.75316993	     20.58444704	     89.95437384	      0.00000000	      0.00000000
      0.13000000	     -1.95236429	     -2.13382561	     -2.93238070	     -0.86723557	      0.89504631	      1.09794622	      0.22560833	      3.09719575	    -15.44480488	    -18.72775400	     -0.32686097	     13.18378924	      2.39157740	     -1.07685696	     30.87477813	      6.44947242	     11.60443182	    -39.67982552	     -0.69254360	      7.91529595	     17.91147609	     21.09424976	     -4.24792760	      2.73041276	      2.66203299	      5.01603806	    -12.59820111	    -16.23175886	     38.37939986	     89.95437384	      0.00000000	      0.00000000	    -10.36234590	      8.06967318	     13.84254630	     20.51646920	     89.95437384	      0.00000000	      0.00000000
